# xmcd
#
# Track frame offsets:
# 150
# 15736
# 30868
# 46925
# 62081
# 76545
# 88025
# 102420
# 115472
# 128354
# 142599
# 155852
# 167695
# 181765
#
# Disc length: 2638 seconds
#
#
# Revision: 0
# Processed by: cddbd v1.5.1PL2 Copyright (c) Steve Scherf et al.
# Submitted via: FreeRIP 2.945 
#
DISCID=9e0a4c0e
DTITLE=João Carreiro e Capataz - Diga que valeu
DYEAR=2006
DGENRE=
TTITLE0=Diga que valeu
TTITLE1=Lágrimas de Crocodilo
TTITLE2=Bateu o Tristezão
TTITLE3=Onde ela anda
TTITLE4=Cada um com seus problemas
TTITLE5=Meu ex-amor
TTITLE6=Não sou nada sem você
TTITLE7=Eu pego mesmo
TTITLE8=Buraco
TTITLE9=Desce Cachaça
TTITLE10=Dormindo com o inimigo
TTITLE11=Do jeito que eu penso
TTITLE12=Abre o Olho concorrência
TTITLE13=Ser filho
EXTD=
EXTT0=
EXTT1=
EXTT2=
EXTT3=
EXTT4=
EXTT5=
EXTT6=
EXTT7=
EXTT8=
EXTT9=
EXTT10=
EXTT11=
EXTT12=
EXTT13=
PLAYORDER=
